<?xml version="1.0" encoding="UTF-8"?>
<svg version="1.1" xmlns="http://www.w3.org/2000/svg" width="16" height="17">
<path d="M0 0 C5.28 0 10.56 0 16 0 C16 5.61 16 11.22 16 17 C10.72 17 5.44 17 0 17 C0 11.39 0 5.78 0 0 Z " fill="#0C050B" transform="translate(0,0)"/>
<path d="M0 0 C2.0625 0.4375 2.0625 0.4375 4 1 C4.33 2.32 4.66 3.64 5 5 C5.66 5 6.32 5 7 5 C7.33 7.31 7.66 9.62 8 12 C4.66666667 11.33333333 1.33333333 10.66666667 -2 10 C-1.01 11.65 -0.02 13.3 1 15 C-1.31 15.33 -3.62 15.66 -6 16 C-6 12.7 -6 9.4 -6 6 C-5.01 5.67 -4.02 5.34 -3 5 C-1.8499169 3.03327085 -1.8499169 3.03327085 -1 1 C-0.67 0.67 -0.34 0.34 0 0 Z " fill="#6E3567" transform="translate(7,0)"/>
<path d="M0 0 C1.32 0.33 2.64 0.66 4 1 C4.33 2.32 4.66 3.64 5 5 C5.66 5 6.32 5 7 5 C7.33 7.31 7.66 9.62 8 12 C7.01 11.67 6.02 11.34 5 11 C5 9.68 5 8.36 5 7 C2.36 7 -0.28 7 -3 7 C-3.33 6.34 -3.66 5.68 -4 5 C-2.68 3.35 -1.36 1.7 0 0 Z " fill="#4B2446" transform="translate(7,0)"/>
<path d="M0 0 C2.31 0 4.62 0 7 0 C7 3.96 7 7.92 7 12 C6.34 11.67 5.68 11.34 5 11 C5 9.02 5 7.04 5 5 C4.34 5 3.68 5 3 5 C2.87625 4.360625 2.7525 3.72125 2.625 3.0625 C2.315625 2.0415625 2.315625 2.0415625 2 1 C1.34 0.67 0.68 0.34 0 0 Z " fill="#030102" transform="translate(9,0)"/>
<path d="M0 0 C3 1 3 1 4.1875 3.0625 C4.455625 3.701875 4.72375 4.34125 5 5 C3.35 5.33 1.7 5.66 0 6 C0 4.02 0 2.04 0 0 Z " fill="#884281" transform="translate(3,10)"/>
</svg>
