<?xml version="1.0" encoding="UTF-8"?>
<svg version="1.1" xmlns="http://www.w3.org/2000/svg" width="32" height="33">
<path d="M0 0 C10.56 0 21.12 0 32 0 C32 10.89 32 21.78 32 33 C21.44 33 10.88 33 0 33 C0 22.11 0 11.22 0 0 Z " fill="#070206" transform="translate(0,0)"/>
<path d="M0 0 C6.6 0 13.2 0 20 0 C19.67 0.66 19.34 1.32 19 2 C18.071875 1.938125 17.14375 1.87625 16.1875 1.8125 C13.08461682 1.72956492 13.08461682 1.72956492 11.1875 3.1875 C9.72461964 5.42031739 9.35494045 7.37344067 9 10 C8.195625 10.12375 7.39125 10.2475 6.5625 10.375 C5.716875 10.58125 4.87125 10.7875 4 11 C2.8517315 13.296537 2.88438825 14.58313167 2.90234375 17.1328125 C2.90556641 17.93847656 2.90878906 18.74414062 2.91210938 19.57421875 C2.92048828 20.41597656 2.92886719 21.25773437 2.9375 22.125 C2.94426758 23.39923828 2.94426758 23.39923828 2.95117188 24.69921875 C2.96297126 26.79950909 2.98090694 28.8997633 3 31 C7.62 30.67 12.24 30.34 17 30 C15.55625 28.246875 14.1125 26.49375 12.625 24.6875 C10.2808056 21.84097823 8.04590116 19.06885174 6 16 C11.61 16 17.22 16 23 16 C22.67 17.32 22.34 18.64 22 20 C25.39100415 21.77257035 28.2635203 23.06588007 32 24 C32 26.97 32 29.94 32 33 C21.44 33 10.88 33 0 33 C0 22.11 0 11.22 0 0 Z " fill="#0A040A" transform="translate(0,0)"/>
<path d="M0 0 C1.32 0 2.64 0 4 0 C4.33 0.99 4.66 1.98 5 3 C5.99 3.33 6.98 3.66 8 4 C8 2.68 8 1.36 8 0 C10.64 0 13.28 0 16 0 C16.33 0.99 16.66 1.98 17 3 C17.99 3.33 18.98 3.66 20 4 C20 2.68 20 1.36 20 0 C20.99 0 21.98 0 23 0 C23.04898437 0.75925781 23.09796875 1.51851562 23.1484375 2.30078125 C23.22320313 3.29464844 23.29796875 4.28851563 23.375 5.3125 C23.44460937 6.29863281 23.51421875 7.28476562 23.5859375 8.30078125 C23.83865472 11.21528433 23.83865472 11.21528433 26 14 C19.25 12.375 19.25 12.375 17 9 C17.66 8.01 18.32 7.02 19 6 C11.08 6.495 11.08 6.495 3 7 C6.2856038 10.53508684 6.2856038 10.53508684 9.58203125 14.06005859 C13 17.77777778 13 17.77777778 13 20 C11.44033408 20.36644578 9.87707349 20.71760862 8.3125 21.0625 C7.00732422 21.35833984 7.00732422 21.35833984 5.67578125 21.66015625 C2.83998724 22.02032279 0.75210018 21.70909969 -2 21 C-2.05390357 18.06225537 -2.0936255 15.12549768 -2.125 12.1875 C-2.14175781 11.35412109 -2.15851562 10.52074219 -2.17578125 9.66210938 C-2.18222656 8.85966797 -2.18867187 8.05722656 -2.1953125 7.23046875 C-2.20578613 6.49207764 -2.21625977 5.75368652 -2.22705078 4.99291992 C-2 3 -2 3 0 0 Z " fill="#86417E" transform="translate(4,10)"/>
<path d="M0 0 C6.6 0 13.2 0 20 0 C19.67 0.66 19.34 1.32 19 2 C18.071875 1.938125 17.14375 1.87625 16.1875 1.8125 C13.08461682 1.72956492 13.08461682 1.72956492 11.1875 3.1875 C9.72461964 5.42031739 9.35494045 7.37344067 9 10 C8.195625 10.12375 7.39125 10.2475 6.5625 10.375 C5.716875 10.58125 4.87125 10.7875 4 11 C2.8517315 13.296537 2.88438825 14.58313167 2.90234375 17.1328125 C2.90556641 17.93847656 2.90878906 18.74414062 2.91210938 19.57421875 C2.92048828 20.41597656 2.92886719 21.25773437 2.9375 22.125 C2.94426758 23.39923828 2.94426758 23.39923828 2.95117188 24.69921875 C2.96297126 26.79950909 2.98090694 28.8997633 3 31 C4.32 31.66 5.64 32.32 7 33 C4.69 33 2.38 33 0 33 C0 22.11 0 11.22 0 0 Z " fill="#030103" transform="translate(0,0)"/>
<path d="M0 0 C2.140625 1.203125 2.140625 1.203125 4 3 C4.609375 5.48046875 4.609375 5.48046875 4.75 8.1875 C4.80671875 9.08855469 4.8634375 9.98960938 4.921875 10.91796875 C4.96054687 11.94857422 4.96054687 11.94857422 5 13 C3.68 12.67 2.36 12.34 1 12 C1 11.01 1 10.02 1 9 C-1.64 9 -4.28 9 -7 9 C-7 10.32 -7 11.64 -7 13 C-8.32 12.67 -9.64 12.34 -11 12 C-10.51780822 4.76712329 -10.51780822 4.76712329 -8.3125 1.5 C-5.27705062 -0.46894014 -3.5580909 -0.51888826 0 0 Z " fill="#6F3669" transform="translate(19,1)"/>
<path d="M0 0 C0.66 0 1.32 0 2 0 C2.33 0.99 2.66 1.98 3 3 C3.99 3.33 4.98 3.66 6 4 C6 2.68 6 1.36 6 0 C8.64 0 11.28 0 14 0 C14.33 0.99 14.66 1.98 15 3 C15.99 3.33 16.98 3.66 18 4 C18 2.68 18 1.36 18 0 C18.99 0 19.98 0 21 0 C21.04898437 0.75925781 21.09796875 1.51851562 21.1484375 2.30078125 C21.22320313 3.29464844 21.29796875 4.28851563 21.375 5.3125 C21.44460937 6.29863281 21.51421875 7.28476562 21.5859375 8.30078125 C21.83865472 11.21528433 21.83865472 11.21528433 24 14 C17.25 12.375 17.25 12.375 15 9 C15.66 8.01 16.32 7.02 17 6 C11.39 6 5.78 6 0 6 C0 4.02 0 2.04 0 0 Z " fill="#8C4484" transform="translate(6,10)"/>
<path d="M0 0 C3 0.25 3 0.25 5 2.25 C5 3.9 5 5.55 5 7.25 C1.7 7.25 -1.6 7.25 -5 7.25 C-5 0.41666667 -5 0.41666667 0 0 Z " fill="#090308" transform="translate(16,2.75)"/>
<path d="M0 0 C0.33 0 0.66 0 1 0 C1 7.26 1 14.52 1 22 C0.01 21.67 -0.98 21.34 -2 21 C-2.05390357 18.06225537 -2.0936255 15.12549768 -2.125 12.1875 C-2.14175781 11.35412109 -2.15851562 10.52074219 -2.17578125 9.66210938 C-2.18222656 8.85966797 -2.18867187 8.05722656 -2.1953125 7.23046875 C-2.20578613 6.49207764 -2.21625977 5.75368652 -2.22705078 4.99291992 C-2 3 -2 3 0 0 Z " fill="#612F5C" transform="translate(4,10)"/>
<path d="M0 0 C5.61 0 11.22 0 17 0 C16.67 0.66 16.34 1.32 16 2 C15.34 1.67 14.68 1.34 14 1 C14 1.66 14 2.32 14 3 C12.00045254 3.04254356 9.99958364 3.04080783 8 3 C7.67 2.67 7.34 2.34 7 2 C4.67182036 1.63239269 2.3381615 1.29758419 0 1 C0 0.67 0 0.34 0 0 Z " fill="#3B1C38" transform="translate(6,16)"/>
</svg>
