<?xml version="1.0" encoding="UTF-8"?>
<svg version="1.1" xmlns="http://www.w3.org/2000/svg" width="1000" height="250">
<path d="M0 0 C0.7425 0.433125 1.485 0.86625 2.25 1.3125 C1.71539219 5.85666636 -0.22665482 8.56818135 -2.75 12.3125 C-2.75 13.3025 -2.75 14.2925 -2.75 15.3125 C-1.53763672 15.74949219 -1.53763672 15.74949219 -0.30078125 16.1953125 C6.1485729 18.66925052 10.49367228 20.42758657 14.25 26.3125 C14.930625 27.2715625 14.930625 27.2715625 15.625 28.25 C16.65527702 31.64991418 16.1765219 33.89595048 15.25 37.3125 C12.62341905 41.32106661 9.79273863 44.56529284 5.25 46.3125 C-4.79216042 47.18573134 -13.64423335 41.65346735 -21.4375 35.9375 C-25.14974059 33.41371053 -27.93023073 32.39398858 -32.4375 32.73046875 C-37.12160161 33.90940649 -40.82286132 36.59463268 -44.75 39.3125 C-45.6575 39.87710938 -46.565 40.44171875 -47.5 41.0234375 C-48.386875 41.59320313 -49.27375 42.16296875 -50.1875 42.75 C-50.99058594 43.26433594 -51.79367188 43.77867188 -52.62109375 44.30859375 C-57.74770118 49.13418937 -58.3152798 55.58824791 -58.9375 62.25 C-59.01935547 63.02923828 -59.10121094 63.80847656 -59.18554688 64.61132812 C-59.38364171 66.51070797 -59.56823841 68.41148762 -59.75 70.3125 C-58.84378906 70.28929688 -57.93757813 70.26609375 -57.00390625 70.2421875 C-39.68392349 69.98559516 -39.68392349 69.98559516 -34.82421875 73.83984375 C-29.2655379 79.66038965 -24.88328052 87.11416353 -24.625 95.25 C-26.06942548 99.18204715 -27.24210554 99.9739037 -30.75 102.3125 C-35.63602584 104.53432698 -40.65995291 106.42138593 -45.671875 108.33789062 C-55.60094134 112.29090016 -64.12144002 117.29084111 -68.75 127.3125 C-69.91016348 130.65688186 -69.76189106 131.27682683 -68.5625 134.875 C-66.017973 139.70082706 -64.33656319 140.74587029 -59.25 142.5625 C-44.56399279 145.70374834 -27.30198806 139.17662367 -14 133.3125 C-13.27409668 132.99273193 -12.54819336 132.67296387 -11.80029297 132.34350586 C-8.24170763 130.70009398 -5.07488759 128.91246238 -1.91796875 126.58203125 C1.28161022 124.28985446 2.44276309 123.73564592 6.25 124.3125 C6.3325 123.44625 6.415 122.58 6.5 121.6875 C7.73834437 116.11495033 10.98695388 112.02547565 15.25 108.3125 C22.19367432 105.99794189 32.96330728 106.05614949 39.9375 108.5625 C43.25 110.3125 43.25 110.3125 46.3125 112.5 C49.91447075 114.72249259 52.08639225 114.70529318 56.25 114.3125 C59.2741263 113.66707077 59.2741263 113.66707077 60.203125 111.71484375 C60.54859375 110.92207031 60.8940625 110.12929687 61.25 109.3125 C61.82234375 108.17941406 62.3946875 107.04632813 62.984375 105.87890625 C65.092121 101.699565 67.17711608 97.50923236 69.25 93.3125 C69.56114746 92.6844043 69.87229492 92.05630859 70.19287109 91.40917969 C71.03591756 89.69506306 71.86212507 87.97269538 72.6875 86.25 C73.39712891 84.77853516 73.39712891 84.77853516 74.12109375 83.27734375 C75.67579127 79.19424543 76.88457557 75.16741319 75.4375 70.9375 C74.33014273 69.16161756 74.33014273 69.16161756 72.25 68.3125 C70.22766016 68.21848627 68.20489129 68.129369 66.18115234 68.07299805 C58.12215319 67.83101765 51.48749591 67.14093242 44.25 63.3125 C43.57066406 62.97863281 42.89132812 62.64476563 42.19140625 62.30078125 C40.87793516 61.65300701 39.57030615 60.99321846 38.26953125 60.3203125 C35.2810443 58.82895924 32.20966739 57.5393981 29.1328125 56.2421875 C27.25 55.3125 27.25 55.3125 25.25 53.3125 C25.0625 50.25 25.0625 50.25 25.25 47.3125 C25.58 46.9825 25.91 46.6525 26.25 46.3125 C32.77460347 46.56344629 38.10370765 48.65835403 44.1015625 51.15625 C50.87040482 53.64207795 57.56223594 53.49547602 64.6875 53.5 C66.2044043 53.51836914 66.2044043 53.51836914 67.75195312 53.53710938 C77.452621 53.75422334 77.452621 53.75422334 85.53125 49.0703125 C87.34282844 46.16355255 88.57989612 43.40528567 89.75 40.1875 C90.17539062 39.04539063 90.60078125 37.90328125 91.0390625 36.7265625 C91.79116225 34.60612642 92.51972941 32.47699672 93.2109375 30.3359375 C95.44421872 23.55974236 98.41925915 18.57218612 103.25 13.3125 C103.80816406 12.70019531 104.36632812 12.08789062 104.94140625 11.45703125 C108.63318062 7.85091289 111.80381545 6.38755224 116.98046875 6.140625 C122.94286138 6.59216592 128.02558568 9.08808568 132.25 13.3125 C135.40911156 21.47995916 132.73300911 34.25443274 129.453125 41.9921875 C125.48211255 49.65056865 119.65204483 53.08041185 112.37109375 57.4375 C105.62691794 61.48906995 102.24341672 64.76502473 98.95703125 72.02734375 C98.65417709 72.6867395 98.35132294 73.34613525 98.03929138 74.0255127 C94.41492751 82.01008311 91.21305724 90.16742987 88.02319336 98.33300781 C84.77944155 106.61313747 81.33732532 114.53061337 76.76087952 122.17797852 C74.3541394 126.38222778 73.89841305 129.50735076 74.25 134.3125 C78.82485614 136.88585658 83.11165866 138.04116223 88.25 138.8125 C96.97388923 140.20237245 96.97388923 140.20237245 101.15625 141.23828125 C112.21550093 143.96703121 118.48529272 142.81827884 128.34375 137.23828125 C132.72069066 134.33796976 136.55186145 130.92239726 140.42578125 127.38671875 C143.25 125.3125 143.25 125.3125 146.35546875 124.98046875 C149.60206275 124.58107307 149.60206275 124.58107307 151.375 121.1015625 C152.02143963 119.7233961 152.64537937 118.33451851 153.25 116.9375 C153.93354992 115.47202771 154.61845255 114.00718564 155.3046875 112.54296875 C155.63436523 111.82157715 155.96404297 111.10018555 156.30371094 110.35693359 C159.77847031 102.84980382 163.60209381 96.36382806 169.25 90.3125 C168.80269531 89.70664063 168.35539062 89.10078125 167.89453125 88.4765625 C159.45525276 76.78033431 155.34321994 67.83777321 156.25 53.3125 C158.42380166 40.47233254 166.39572052 30.43995207 176.453125 22.59375 C186.52680546 15.87796303 199.48411513 13.36686085 211.25 11.3125 C211.1675 10.095625 211.085 8.87875 211 7.625 C211.02700806 4.56768736 211.25329792 3.30604755 212.6875 0.5 C216.30949834 -2.5919498 219.46198867 -4.25608391 224.25 -4.6875 C230.23586189 -3.52337378 235.5157103 -1.57838893 240.25 2.3125 C239.7901059 5.30181167 238.92258828 6.79865679 237.1875 9.375 C234.97470263 12.14339933 234.97470263 12.14339933 235.25 15.3125 C236.24580078 15.65861328 236.24580078 15.65861328 237.26171875 16.01171875 C242.67446288 18.01087826 246.49065041 19.75571262 250.25 24.3125 C251.11625 25.3025 251.11625 25.3025 252 26.3125 C253.56032078 28.80901325 254.11235919 30.35322258 254.25 33.3125 C252.53200116 38.97179029 250.38982186 42.07631586 245.25 45.3125 C238.73028811 47.64096853 233.52500047 45.74088032 227.4375 42.9921875 C224.58421097 41.48861607 221.88441088 39.85190262 219.18188477 38.09399414 C213.53998483 34.20200583 213.53998483 34.20200583 207.0625 32.4375 C200.20283205 34.01185002 194.90566925 38.06932264 189.3125 42.1875 C186.25 44.3125 186.25 44.3125 183.25 44.3125 C181.55949162 48.2080193 180.52348843 52.0399322 179.625 56.1875 C179.36460937 57.36054687 179.10421875 58.53359375 178.8359375 59.7421875 C178.24652839 63.3336537 178.14781139 66.68015933 178.25 70.3125 C179.1678125 70.28929688 180.085625 70.26609375 181.03125 70.2421875 C197.31036745 70.00278871 197.31036745 70.00278871 202.875 74.375 C212.28584835 86.01473348 212.28584835 86.01473348 212.625 93.75 C212.67398437 94.51183594 212.72296875 95.27367187 212.7734375 96.05859375 C211.99223444 99.4224308 210.01890651 100.34660277 207.25 102.3125 C204.54614258 103.54174805 204.54614258 103.54174805 201.64453125 104.57421875 C200.57783203 104.97189453 199.51113281 105.36957031 198.41210938 105.77929688 C196.20253401 106.58453571 193.9890213 107.37906221 191.77148438 108.16210938 C182.51054906 111.64956069 174.62445485 116.7503169 169.5625 125.5 C168.05888707 129.09156833 167.91879014 131.56847227 169.25 135.3125 C171.35585164 139.24952699 173.65711038 140.73560818 177.75 142.1875 C194.30700228 146.3327408 215.5694401 137.86582238 230.25 130.3125 C232.70715615 128.76172998 235.06859095 127.16998936 237.3828125 125.4140625 C239.25 124.3125 239.25 124.3125 243.25 124.3125 C243.415 123.714375 243.58 123.11625 243.75 122.5 C246.07562518 119.10846327 249.36380719 118.32997593 253.25 117.3125 C254.425625 117.250625 255.60125 117.18875 256.8125 117.125 C262.05949176 115.88480195 264.39481022 112.75232011 267.25 108.3125 C269.32326935 103.85224292 270.67918007 99.20383425 272.09765625 94.50390625 C273.5095494 89.99929476 274.9192099 85.76327573 277.28125 81.6640625 C282.14790662 73.15306731 283.84477863 67.11958073 283.30566406 57.28173828 C282.95277776 49.41949627 284.99557011 43.43737687 288.25 36.3125 C287.07244141 36.36470703 287.07244141 36.36470703 285.87109375 36.41796875 C279.51766049 36.58167685 274.80698855 36.52320449 269.25 33.3125 C267.82958179 30.47166359 267.93547728 28.45772722 268.25 25.3125 C271.10953344 21.19477184 274.45148373 20.27220325 279.25 19.3125 C281.24313415 19.3125 283.23655513 19.31353237 285.22924805 19.35546875 C292.33950289 19.20427812 297.39857788 16.32169784 303 12.3125 C314.79491757 4.07253762 314.79491757 4.07253762 322.25 5.3125 C325.04827536 7.24976756 326.00345178 8.51121829 327 11.75 C327.24800432 14.29204426 327.3229244 16.76014584 327.25 19.3125 C332.44163513 18.87065871 336.36398007 17.54534733 341.0390625 15.25 C348.34343074 12.15274138 358.28678412 11.94682053 365.75 14.5625 C373.27811442 18.32655721 377.70923393 23.74633787 381.25 31.3125 C383.62626253 42.29083289 378.41768083 54.27326781 373.0078125 63.625 C365.37081456 75.30112129 355.44756793 85.07977275 344.25 93.3125 C345.59270929 96.78116567 347.11529638 100.09831882 348.75 103.4375 C352.40627045 111.48562194 354.82607745 120.58414347 352.25 129.3125 C345.07444886 144.72307963 331.71068123 154.92526876 316.25 161.3125 C306.00585318 164.84266763 295.13462656 166.41158117 284.984375 161.8671875 C279.07769957 158.50882062 273.66539901 154.40136035 268.25 150.3125 C267.1444811 151.24840504 266.04064547 152.18629858 264.9375 153.125 C264.01517578 153.90810547 264.01517578 153.90810547 263.07421875 154.70703125 C261.23551102 156.27171385 261.23551102 156.27171385 259.66796875 158.01171875 C258.25 159.3125 258.25 159.3125 255.875 159.3125 C252.19845103 157.91190992 250.65511642 156.45949313 248.25 153.3125 C247.64058098 149.85345542 247.7767917 146.49849605 247.9375 143 C247.96005859 142.06865234 247.98261719 141.13730469 248.00585938 140.17773438 C248.06457922 137.8876604 248.14663142 135.60092125 248.25 133.3125 C247.26 133.3125 246.27 133.3125 245.25 133.3125 C245.02828125 134.01632813 244.8065625 134.72015625 244.578125 135.4453125 C239.99202635 145.34589017 229.10643942 152.73109447 219.29101562 156.58642578 C201.06263333 163.07102015 179.66570098 167.2618652 161.3125 158.98828125 C154.49372404 155.12227881 150.05090937 151.23501058 147.62109375 143.61328125 C147.23135376 142.40345581 147.23135376 142.40345581 146.83374023 141.16918945 C146.64110596 140.55648193 146.44847168 139.94377441 146.25 139.3125 C145.57964722 139.79493164 145.57964722 139.79493164 144.89575195 140.28710938 C116.23122522 160.86187783 116.23122522 160.86187783 110.3215332 160.04638672 C109.65468506 159.86350098 108.98783691 159.68061523 108.30078125 159.4921875 C107.54394043 159.28907959 106.78709961 159.08597168 106.00732422 158.87670898 C105.20053223 158.64927002 104.39374023 158.42183105 103.5625 158.1875 C102.71961426 157.95812744 101.87672852 157.72875488 101.00830078 157.49243164 C95.52426273 155.98758365 90.07268911 154.38053117 84.625 152.75 C78.82170921 151.02231837 73.00166382 149.39799168 67.125 147.9375 C66.09511963 147.66764282 66.09511963 147.66764282 65.04443359 147.39233398 C57.34778756 145.54230582 51.85623957 147.12298821 45.0625 150.8125 C36.38267292 155.43555228 27.59918461 157.23068341 17.765625 154.6640625 C12.71791222 152.37498345 9.50941566 148.69684673 6.25 144.3125 C5.69957031 143.5803125 5.14914063 142.848125 4.58203125 142.09375 C4.14246094 141.5059375 3.70289063 140.918125 3.25 140.3125 C2.69054687 140.95316406 2.13109375 141.59382812 1.5546875 142.25390625 C-12.26429452 157.1615219 -31.83989192 162.09796185 -51.578125 163.515625 C-63.28462934 163.7422025 -74.66233573 161.09079573 -84.0625 153.9375 C-87.83152287 150.25612882 -89.55142091 147.06466848 -90.1484375 141.796875 C-90.14070312 140.56453125 -90.13296875 139.3321875 -90.125 138.0625 C-90.13273438 136.84046875 -90.14046875 135.6184375 -90.1484375 134.359375 C-89.58435937 125.40463471 -85.65482437 117.53886497 -81.5 109.75 C-81.04753906 108.86892578 -80.59507812 107.98785156 -80.12890625 107.08007812 C-76.91082543 100.97293595 -73.15551571 95.62193949 -68.75 90.3125 C-69.67232422 88.91837891 -69.67232422 88.91837891 -70.61328125 87.49609375 C-71.42997549 86.24758417 -72.24636552 84.99887556 -73.0625 83.75 C-73.46662109 83.14091797 -73.87074219 82.53183594 -74.28710938 81.90429688 C-81.0887039 71.45306626 -83.28429909 61.72051901 -80.6875 49.4375 C-77.37163722 37.21706673 -69.0123761 27.44792621 -58.44921875 20.72265625 C-48.66341858 15.61024835 -37.51195137 13.35213023 -26.75 11.3125 C-26.80542969 10.23613281 -26.86085937 9.15976562 -26.91796875 8.05078125 C-26.7470841 4.24760423 -26.56415986 3.19070217 -24.0625 0.5 C-23.56363281 -0.06332031 -23.06476563 -0.62664063 -22.55078125 -1.20703125 C-15.6857214 -6.85097416 -7.29100479 -3.61940094 0 0 Z M113.25 23.3125 C108.94715653 27.76418397 106.4957549 31.20830099 105.25 37.3125 C107.52806651 38.18516722 107.52806651 38.18516722 110.25 38.3125 C112.60887226 36.65162918 112.60887226 36.65162918 114.5625 34.1875 C115.25988281 33.40117188 115.95726562 32.61484375 116.67578125 31.8046875 C118.44051515 29.0108904 118.58998986 27.55104746 118.25 24.3125 C116.6 23.9825 114.95 23.6525 113.25 23.3125 Z M313.5 47.9375 C307.77285553 54.63464732 302.01354434 63.35411322 301.5625 72.375 C302.29855497 76.59058754 303.15969436 78.40397705 306.25 81.3125 C311.38067753 83.87783876 318.22866128 82.84093908 323.58203125 81.44140625 C330.96384809 78.77064215 337.10815779 75.1653136 343.25 70.3125 C344.23806641 69.57 344.23806641 69.57 345.24609375 68.8125 C350.9163534 64.32506871 355.0724522 59.09074755 356.25 51.8125 C356.55625631 46.25203384 355.32951674 41.83645172 351.76953125 37.515625 C348.3150176 34.19549747 345.16953598 32.37873102 340.33984375 32.15625 C329.46741489 32.96914188 320.80955647 40.39175038 313.5 47.9375 Z M292.25 105.3125 C286.22234521 113.4343551 285.38958516 126.56113185 286.25 136.3125 C287.2994551 140.42286581 288.67071618 142.09704674 292.25 144.3125 C302.27988376 146.1251296 311.05450076 142.84329147 319.2734375 137.2578125 C325.45712786 132.46669584 331.47771173 127.66499294 332.64453125 119.578125 C332.84144641 114.18119108 332.4882092 109.82286281 329.25 105.3125 C325.8592396 103.06455681 322.91605864 103.05494154 318.91015625 103.046875 C317.68232422 103.04429687 316.45449219 103.04171875 315.18945312 103.0390625 C313.27036133 103.05066406 313.27036133 103.05066406 311.3125 103.0625 C310.03697266 103.05476563 308.76144531 103.04703125 307.44726562 103.0390625 C306.21814453 103.04164063 304.98902344 103.04421875 303.72265625 103.046875 C302.60125244 103.04913086 301.47984863 103.05138672 300.32446289 103.05371094 C297.21391488 103.31553742 295.02969395 103.91735183 292.25 105.3125 Z M23.25 126.3125 C22.01098289 128.18342681 22.01098289 128.18342681 22.25 130.3125 C24.33117669 133.43426503 26.11651634 135.22351089 29.25 137.3125 C33.25169043 137.00467766 35.81718479 135.5265644 39.0625 133.25 C39.85269531 132.70214844 40.64289063 132.15429688 41.45703125 131.58984375 C42.04871094 131.16832031 42.64039063 130.74679688 43.25 130.3125 C43.11940187 128.36628822 43.11940187 128.36628822 42.25 126.3125 C40.08665569 124.94964291 40.08665569 124.94964291 37.4375 124.0625 C36.56480469 123.72734375 35.69210937 123.3921875 34.79296875 123.046875 C29.43368436 121.49918611 27.10319383 122.56344655 23.25 126.3125 Z " fill="#FEFEFE" transform="translate(229.75,44.6875)"/>
<path d="M0 0 C2.79827536 1.93726756 3.75345178 3.19871829 4.75 6.4375 C4.99800432 8.97954426 5.0729244 11.44764584 5 14 C10.19163513 13.55815871 14.11398007 12.23284733 18.7890625 9.9375 C26.09343074 6.84024138 36.03678412 6.63432053 43.5 9.25 C51.02811442 13.01405721 55.45923393 18.43383787 59 26 C61.37626253 36.97833289 56.16768083 48.96076781 50.7578125 58.3125 C43.12081456 69.98862129 33.19756793 79.76727275 22 88 C23.34270929 91.46866567 24.86529638 94.78581882 26.5 98.125 C30.15627045 106.17312194 32.57607745 115.27164347 30 124 C22.82444886 139.41057963 9.46068123 149.61276876 -6 156 C-16.24414682 159.53016763 -27.11537344 161.09908117 -37.265625 156.5546875 C-43.17230043 153.19632062 -48.58460099 149.08886035 -54 145 C-55.1055189 145.93590504 -56.20935453 146.87379858 -57.3125 147.8125 C-57.92738281 148.33457031 -58.54226563 148.85664063 -59.17578125 149.39453125 C-61.01448898 150.95921385 -61.01448898 150.95921385 -62.58203125 152.69921875 C-64 154 -64 154 -66.375 154 C-70.05154897 152.59940992 -71.59488358 151.14699313 -74 148 C-74.60941902 144.54095542 -74.4732083 141.18599605 -74.3125 137.6875 C-74.28994141 136.75615234 -74.26738281 135.82480469 -74.24414062 134.86523438 C-74.18542078 132.5751604 -74.10336858 130.28842125 -74 128 C-74.7940625 127.70609375 -75.588125 127.4121875 -76.40625 127.109375 C-79 126 -79 126 -80.5 124.25 C-81 122 -81 122 -79.9375 118.9375 C-77.72979873 115.59034001 -76.68796892 114.53665372 -73 113 C-71.20989768 112.75891811 -69.41798693 112.53109704 -67.625 112.3125 C-62.32850621 111.40839421 -59.73281319 109.8643319 -56.48828125 105.59765625 C-53.49942073 100.38087871 -51.79794266 94.71148569 -50 89 C-48.36726639 84.08836104 -46.79216082 79.37170705 -44.1953125 74.875 C-39.58151425 66.87033797 -38.53895237 61.29540217 -38.99511719 52.07104492 C-39.29336817 44.17942005 -37.26624658 38.15074697 -34 31 C-35.17755859 31.05220703 -35.17755859 31.05220703 -36.37890625 31.10546875 C-42.73233951 31.26917685 -47.44301145 31.21070449 -53 28 C-54.42041821 25.15916359 -54.31452272 23.14522722 -54 20 C-51.14046656 15.88227184 -47.79851627 14.95970325 -43 14 C-41.00686585 14 -39.01344487 14.00103237 -37.02075195 14.04296875 C-29.91049711 13.89177812 -24.85142212 11.00919784 -19.25 7 C-7.45508243 -1.23996238 -7.45508243 -1.23996238 0 0 Z M-8.75 42.625 C-14.47714447 49.32214732 -20.23645566 58.04161322 -20.6875 67.0625 C-19.95144503 71.27808754 -19.09030564 73.09147705 -16 76 C-10.86932247 78.56533876 -4.02133872 77.52843908 1.33203125 76.12890625 C8.71384809 73.45814215 14.85815779 69.8528136 21 65 C21.98806641 64.2575 21.98806641 64.2575 22.99609375 63.5 C28.6663534 59.01256871 32.8224522 53.77824755 34 46.5 C34.30625631 40.93953384 33.07951674 36.52395172 29.51953125 32.203125 C26.0650176 28.88299747 22.91953598 27.06623102 18.08984375 26.84375 C7.21741489 27.65664188 -1.44044353 35.07925038 -8.75 42.625 Z M-30 100 C-36.02765479 108.1218551 -36.86041484 121.24863185 -36 131 C-34.9505449 135.11036581 -33.57928382 136.78454674 -30 139 C-20.0334555 140.80118274 -11.17809481 137.55399421 -3.0234375 131.95703125 C-0.56425376 130.0554934 1.80408696 128.20077126 4 126 C4 125.34 4 124.68 4 124 C4.66 124 5.32 124 6 124 C10.21225115 118.07652182 10.90031447 113.2025158 10 106 C8.51944365 101.75848191 8.51944365 101.75848191 5.28686523 98.86425781 C2.31847651 97.74243694 -0.16776753 97.7407625 -3.33984375 97.734375 C-4.56767578 97.73179687 -5.79550781 97.72921875 -7.06054688 97.7265625 C-8.97963867 97.73816406 -8.97963867 97.73816406 -10.9375 97.75 C-12.21302734 97.74226563 -13.48855469 97.73453125 -14.80273438 97.7265625 C-16.03185547 97.72914063 -17.26097656 97.73171875 -18.52734375 97.734375 C-19.64874756 97.73663086 -20.77015137 97.73888672 -21.92553711 97.74121094 C-25.03608512 98.00303742 -27.22030605 98.60485183 -30 100 Z " fill="#FEFEFE" transform="translate(808,50)"/>
<path d="M0 0 C8.50089227 5.98210938 15.65438228 13.68791601 18.12890625 23.97265625 C19.62647343 34.72082068 15.40106272 43.60322118 10.86328125 53.09765625 C9.9465603 55.10260603 9.9465603 55.10260603 10.12890625 57.97265625 C11.04671875 57.61171875 11.96453125 57.25078125 12.91015625 56.87890625 C25.57359582 52.09021061 25.57359582 52.09021061 32.12890625 52.97265625 C34.12890625 54.97265625 34.12890625 54.97265625 34.62890625 58.16015625 C33.95696786 63.28368648 31.9825044 65.6517369 28.12890625 68.97265625 C22.37313873 72.9867258 15.27081164 74.58069828 8.6171875 76.53125 C2.83393232 78.92097135 -0.31010831 83.32133 -3.69140625 88.4375 C-4.73337158 89.9985144 -4.73337158 89.9985144 -5.79638672 91.59106445 C-6.52229004 92.68636475 -7.24819336 93.78166504 -7.99609375 94.91015625 C-17.36118319 108.88152502 -27.28923026 121.77163653 -38.87109375 133.97265625 C-39.4846875 134.65070313 -40.09828125 135.32875 -40.73046875 136.02734375 C-48.36616862 144.20845076 -58.28149809 150.18752566 -69.49609375 151.34765625 C-76.68532953 150.54885227 -82.04876884 147.18387833 -86.87109375 141.97265625 C-95.21480825 131.49311052 -98.32432534 116.34069377 -97.25488281 103.14086914 C-96.54619068 99.13711927 -95.15823418 95.31830683 -93.9140625 91.4543457 C-92.2368325 85.85533422 -91.227767 80.14360132 -90.12109375 74.41015625 C-87.66113382 62.28404835 -84.07305852 51.18520376 -78.87109375 39.97265625 C-78.401875 38.90917969 -77.93265625 37.84570312 -77.44921875 36.75 C-69.95625876 23.56313229 -50.61991353 11.54942259 -37.1328125 5.51171875 C-33.59987171 4.66967069 -30.7813364 5.70468762 -27.36328125 6.7109375 C-24.01867223 7.06217387 -22.74260772 6.03357712 -19.99609375 4.16015625 C-14.26680802 0.49647353 -6.64602748 -3.64907146 0 0 Z M-11.87109375 21.97265625 C-12.89414323 23.62527464 -13.89725429 25.2905699 -14.87109375 26.97265625 C-15.86109375 27.30265625 -16.85109375 27.63265625 -17.87109375 27.97265625 C-21.37815412 34.356423 -19.92406234 42.18496357 -18.046875 48.9375 C-16.33408886 53.54780577 -15.0615582 56.21415345 -10.87109375 58.97265625 C-2.96677382 49.73736835 2.79184988 37.4058713 2.00390625 25.03515625 C1.90770977 22.84125045 1.90770977 22.84125045 1.12890625 20.97265625 C-3.56816625 17.70910587 -7.50852263 18.72869311 -11.87109375 21.97265625 Z M-40.87109375 27.97265625 C-56.72319985 36.42343058 -68.27656913 51.15301052 -73.48046875 68.046875 C-83.12328684 98.58360372 -83.12328684 98.58360372 -80.49609375 129.53515625 C-78.42519572 132.6415033 -77.18697266 134.44630468 -73.68359375 135.84765625 C-63.21533274 136.31291229 -55.03590871 127.13965091 -47.87109375 120.66015625 C-35.88767856 109.59405058 -26.03123374 97.14363599 -18.18359375 82.84765625 C-17.83224365 82.22028564 -17.48089355 81.59291504 -17.11889648 80.9465332 C-15.80821609 78.46336996 -14.84678517 76.55808785 -14.96484375 73.71484375 C-16.05334908 71.6222861 -17.17482805 70.63652013 -19.05859375 69.22265625 C-25.10280551 64.27062238 -28.91886113 58.97433402 -31.0859375 51.4609375 C-32.01851214 48.50546465 -33.24462345 45.74468299 -34.49609375 42.91015625 C-36.52683211 38.14737348 -37.57366105 34.12815635 -37.87109375 28.97265625 C-38.86109375 28.64265625 -39.85109375 28.31265625 -40.87109375 27.97265625 Z " fill="#FEFEFE" transform="translate(960.87109375,58.02734375)"/>
<path d="M0 0 C8.50089227 5.98210938 15.65438228 13.68791601 18.12890625 23.97265625 C19.62647343 34.72082068 15.40106272 43.60322118 10.86328125 53.09765625 C9.9465603 55.10260603 9.9465603 55.10260603 10.12890625 57.97265625 C11.04671875 57.61171875 11.96453125 57.25078125 12.91015625 56.87890625 C25.57359582 52.09021061 25.57359582 52.09021061 32.12890625 52.97265625 C34.12890625 54.97265625 34.12890625 54.97265625 34.62890625 58.16015625 C33.95696786 63.28368648 31.9825044 65.6517369 28.12890625 68.97265625 C22.37313873 72.9867258 15.27081164 74.58069828 8.6171875 76.53125 C2.83393232 78.92097135 -0.31010831 83.32133 -3.69140625 88.4375 C-4.73337158 89.9985144 -4.73337158 89.9985144 -5.79638672 91.59106445 C-6.52229004 92.68636475 -7.24819336 93.78166504 -7.99609375 94.91015625 C-17.36118319 108.88152502 -27.28923026 121.77163653 -38.87109375 133.97265625 C-39.4846875 134.65070313 -40.09828125 135.32875 -40.73046875 136.02734375 C-48.36616862 144.20845076 -58.28149809 150.18752566 -69.49609375 151.34765625 C-76.68532953 150.54885227 -82.04876884 147.18387833 -86.87109375 141.97265625 C-95.21480825 131.49311052 -98.32432534 116.34069377 -97.25488281 103.14086914 C-96.54619068 99.13711927 -95.15823418 95.31830683 -93.9140625 91.4543457 C-92.2368325 85.85533422 -91.227767 80.14360132 -90.12109375 74.41015625 C-87.66113382 62.28404835 -84.07305852 51.18520376 -78.87109375 39.97265625 C-78.401875 38.90917969 -77.93265625 37.84570312 -77.44921875 36.75 C-69.95625876 23.56313229 -50.61991353 11.54942259 -37.1328125 5.51171875 C-33.59987171 4.66967069 -30.7813364 5.70468762 -27.36328125 6.7109375 C-24.01867223 7.06217387 -22.74260772 6.03357712 -19.99609375 4.16015625 C-14.26680802 0.49647353 -6.64602748 -3.64907146 0 0 Z M-11.87109375 21.97265625 C-12.89414323 23.62527464 -13.89725429 25.2905699 -14.87109375 26.97265625 C-15.86109375 27.30265625 -16.85109375 27.63265625 -17.87109375 27.97265625 C-21.37815412 34.356423 -19.92406234 42.18496357 -18.046875 48.9375 C-16.33408886 53.54780577 -15.0615582 56.21415345 -10.87109375 58.97265625 C-2.96677382 49.73736835 2.79184988 37.4058713 2.00390625 25.03515625 C1.90770977 22.84125045 1.90770977 22.84125045 1.12890625 20.97265625 C-3.56816625 17.70910587 -7.50852263 18.72869311 -11.87109375 21.97265625 Z M-40.87109375 27.97265625 C-56.72319985 36.42343058 -68.27656913 51.15301052 -73.48046875 68.046875 C-83.12328684 98.58360372 -83.12328684 98.58360372 -80.49609375 129.53515625 C-78.42519572 132.6415033 -77.18697266 134.44630468 -73.68359375 135.84765625 C-63.21533274 136.31291229 -55.03590871 127.13965091 -47.87109375 120.66015625 C-35.88767856 109.59405058 -26.03123374 97.14363599 -18.18359375 82.84765625 C-17.83224365 82.22028564 -17.48089355 81.59291504 -17.11889648 80.9465332 C-15.80821609 78.46336996 -14.84678517 76.55808785 -14.96484375 73.71484375 C-16.05334908 71.6222861 -17.17482805 70.63652013 -19.05859375 69.22265625 C-25.10280551 64.27062238 -28.91886113 58.97433402 -31.0859375 51.4609375 C-32.01851214 48.50546465 -33.24462345 45.74468299 -34.49609375 42.91015625 C-36.52683211 38.14737348 -37.57366105 34.12815635 -37.87109375 28.97265625 C-38.86109375 28.64265625 -39.85109375 28.31265625 -40.87109375 27.97265625 Z " fill="#FEFEFE" transform="translate(704.87109375,58.02734375)"/>
<path d="M0 0 C0.73798828 0.11408203 1.47597656 0.22816406 2.23632812 0.34570312 C8.51923336 1.44590964 12.79462205 3.67243722 16.9375 8.6875 C20.1030837 15.09983622 19.82161843 22.46127899 17.87255859 29.19677734 C16.99317751 31.7531177 16.02819079 34.2499138 15 36.75 C14.67805664 37.54245117 14.35611328 38.33490234 14.02441406 39.15136719 C10.00702597 48.18953659 3.5170186 53.81259555 -5.4375 57.8125 C-9.36720254 59.17586619 -11.64208602 58.97686347 -15.375 57.375 C-22.35845383 53.49530343 -26.9821505 47.31495682 -29.4375 39.8125 C-29.8429103 37.49060464 -30.19822994 35.15734656 -30.4375 32.8125 C-55.11300247 48.1805761 -72.4282803 84.29212077 -79.1171875 111.5859375 C-80.34416218 120.00392667 -80.34416218 120.00392667 -77.125 127.5625 C-76.66480469 128.11035156 -76.20460938 128.65820312 -75.73046875 129.22265625 C-74.4375 130.8125 -74.4375 130.8125 -72.9375 134 C-70.6875613 138.21863505 -67.93909611 140.31196796 -63.4375 141.8125 C-52.20118086 143.40476423 -43.50059962 139.26942482 -34.62109375 132.7421875 C-30.20115854 129.08119437 -30.20115854 129.08119437 -27.40234375 124.1875 C-26.4375 121.8125 -26.4375 121.8125 -23.25 119.9375 C-19.01480324 118.68776981 -16.67030936 118.61453509 -12.4375 119.8125 C-9.3265399 122.18665376 -8.0507526 123.98323665 -7.4375 127.8125 C-10.4314126 139.03967224 -18.25465788 145.06871042 -27.90234375 150.828125 C-38.18070538 156.70461281 -47.81377927 157.70861077 -59.4375 157.8125 C-60.39140625 157.83699219 -61.3453125 157.86148438 -62.328125 157.88671875 C-71.09698823 157.61799552 -78.84290331 152.46845371 -85.1875 146.6875 C-96.51456377 134.46766273 -98.28938297 122.09530278 -98.6875 106 C-98.71328125 105.02417969 -98.7390625 104.04835938 -98.765625 103.04296875 C-98.00735721 95.57764181 -94.67618605 88.66219327 -91.5 81.9375 C-91.11811523 81.12667969 -90.73623047 80.31585938 -90.34277344 79.48046875 C-86.93277006 72.44919887 -82.88350362 65.93498927 -78.61083984 59.40161133 C-75.43014392 54.50945672 -72.88955002 49.67360455 -70.65039062 44.27539062 C-61.80260165 26.30910738 -38.82990389 8.73407091 -20.375 2.1875 C-18.59416016 1.54941406 -18.59416016 1.54941406 -16.77734375 0.8984375 C-10.5766703 -1.1176879 -6.34353968 -1.1408451 0 0 Z M-3.4375 23.8125 C-4.613125 25.2046875 -4.613125 25.2046875 -5.8125 26.625 C-6.25335938 27.14707031 -6.69421875 27.66914062 -7.1484375 28.20703125 C-9.73587169 31.42956292 -10.4375 32.53839794 -10.4375 36.8125 C-6.5259532 35.33291491 -5.2100476 33.27292529 -3.1875 29.6875 C-2.66671875 28.77742188 -2.1459375 27.86734375 -1.609375 26.9296875 C-1.22265625 26.23101562 -0.8359375 25.53234375 -0.4375 24.8125 C-1.4275 24.4825 -2.4175 24.1525 -3.4375 23.8125 Z " fill="#FEFEFE" transform="translate(132.4375,57.1875)"/>
<path d="" fill="#000000" transform="translate(0,0)"/>
<path d="" fill="#000000" transform="translate(0,0)"/>
<path d="" fill="#000000" transform="translate(0,0)"/>
<path d="" fill="#000000" transform="translate(0,0)"/>
<path d="" fill="#000000" transform="translate(0,0)"/>
<path d="" fill="#000000" transform="translate(0,0)"/>
<path d="" fill="#000000" transform="translate(0,0)"/>
<path d="" fill="#000000" transform="translate(0,0)"/>
<path d="" fill="#000000" transform="translate(0,0)"/>
<path d="" fill="#000000" transform="translate(0,0)"/>
<path d="" fill="#000000" transform="translate(0,0)"/>
<path d="" fill="#000000" transform="translate(0,0)"/>
<path d="" fill="#000000" transform="translate(0,0)"/>
<path d="" fill="#000000" transform="translate(0,0)"/>
<path d="" fill="#000000" transform="translate(0,0)"/>
<path d="" fill="#000000" transform="translate(0,0)"/>
<path d="" fill="#000000" transform="translate(0,0)"/>
<path d="" fill="#000000" transform="translate(0,0)"/>
<path d="" fill="#000000" transform="translate(0,0)"/>
<path d="" fill="#000000" transform="translate(0,0)"/>
<path d="" fill="#000000" transform="translate(0,0)"/>
<path d="" fill="#000000" transform="translate(0,0)"/>
<path d="" fill="#000000" transform="translate(0,0)"/>
<path d="" fill="#000000" transform="translate(0,0)"/>
<path d="" fill="#000000" transform="translate(0,0)"/>
<path d="" fill="#000000" transform="translate(0,0)"/>
<path d="" fill="#000000" transform="translate(0,0)"/>
<path d="" fill="#000000" transform="translate(0,0)"/>
<path d="" fill="#000000" transform="translate(0,0)"/>
<path d="" fill="#000000" transform="translate(0,0)"/>
<path d="" fill="#000000" transform="translate(0,0)"/>
<path d="" fill="#000000" transform="translate(0,0)"/>
<path d="" fill="#000000" transform="translate(0,0)"/>
<path d="" fill="#000000" transform="translate(0,0)"/>
<path d="" fill="#000000" transform="translate(0,0)"/>
<path d="" fill="#000000" transform="translate(0,0)"/>
<path d="" fill="#000000" transform="translate(0,0)"/>
<path d="" fill="#000000" transform="translate(0,0)"/>
<path d="" fill="#000000" transform="translate(0,0)"/>
<path d="" fill="#000000" transform="translate(0,0)"/>
<path d="" fill="#000000" transform="translate(0,0)"/>
<path d="" fill="#000000" transform="translate(0,0)"/>
<path d="" fill="#000000" transform="translate(0,0)"/>
<path d="" fill="#000000" transform="translate(0,0)"/>
<path d="" fill="#000000" transform="translate(0,0)"/>
<path d="" fill="#000000" transform="translate(0,0)"/>
<path d="" fill="#000000" transform="translate(0,0)"/>
<path d="" fill="#000000" transform="translate(0,0)"/>
<path d="" fill="#000000" transform="translate(0,0)"/>
<path d="" fill="#000000" transform="translate(0,0)"/>
<path d="" fill="#000000" transform="translate(0,0)"/>
<path d="" fill="#000000" transform="translate(0,0)"/>
<path d="" fill="#000000" transform="translate(0,0)"/>
<path d="" fill="#000000" transform="translate(0,0)"/>
<path d="" fill="#000000" transform="translate(0,0)"/>
<path d="" fill="#000000" transform="translate(0,0)"/>
<path d="" fill="#000000" transform="translate(0,0)"/>
<path d="" fill="#000000" transform="translate(0,0)"/>
<path d="" fill="#000000" transform="translate(0,0)"/>
<path d="" fill="#000000" transform="translate(0,0)"/>
<path d="" fill="#000000" transform="translate(0,0)"/>
<path d="" fill="#000000" transform="translate(0,0)"/>
<path d="" fill="#000000" transform="translate(0,0)"/>
<path d="" fill="#000000" transform="translate(0,0)"/>
<path d="" fill="#000000" transform="translate(0,0)"/>
</svg>
